# File created by Blade
# Date/Time:  Mon Sep 22 17:46:01 2014
# Frame Rate: 120.000 fps
#------------------------------------------------------
:FULLY-SPECIFIED
:DEGREES
1842
root 5.527701 36.993343 5.347834 -14.658838 -19.538130 -4.703870
RightUpLeg -5.296676 -29.206013 -15.677443
RightLeg 81.740315 -0.000000 -0.000000
RightFoot -1.297781 -26.331148 12.146957
RightToeBase -5.053568 -0.000000 0.000000
LeftUpLeg 26.294410 6.732946 -2.823666
LeftLeg -6.681566 -0.000000 0.000000
LeftFoot -11.563405 20.022106 -10.384999
LeftToeBase 6.345237 -0.000000 -0.000000
Spine 22.926922 -1.418880 -12.131941
RightShoulder -0.783052 -31.332674 -2.486823
RightArm 21.296514 -23.371844 65.072622
RightForeArm 6.674943 -0.000000 47.170169
RightHand -3.173295 0.000000 -8.048706
RightHandThumb1 -24.326973 -0.000000 -32.862282
LeftShoulder -18.908079 33.809817 0.887517
LeftArm 52.527773 -16.861645 -70.572856
LeftForeArm 23.987100 0.000000 117.147152
LeftHand -25.851066 -0.000000 9.443205
LeftHandThumb1 -26.253704 0.000000 33.147579
Head 24.358075 -0.721609 13.553749
1843
root 5.533223 36.990355 5.345620 -14.556639 -19.525618 -4.693870
RightUpLeg -5.070250 -29.090861 -15.725488
RightLeg 80.727280 -0.000000 -0.000000
RightFoot -1.282784 -26.518328 12.160231
RightToeBase -4.875883 -0.000000 0.000000
LeftUpLeg 26.184697 6.684775 -2.872986
LeftLeg -6.692251 -0.000000 0.000000
LeftFoot -11.569145 20.064755 -10.364388
LeftToeBase 6.333634 -0.000000 -0.000000
Spine 22.808842 -1.460585 -12.103729
RightShoulder -0.774795 -31.341183 -2.482141
RightArm 21.289641 -23.340778 65.099296
RightForeArm 6.722677 -0.000000 46.957290
RightHand -3.219474 -0.000000 -8.089242
RightHandThumb1 -24.326973 -0.000000 -32.862282
LeftShoulder -18.898030 33.862288 0.878056
LeftArm 52.509181 -16.795333 -70.611117
LeftForeArm 24.014451 -0.000000 117.182223
LeftHand -25.744517 -0.000000 9.268010
LeftHandThumb1 -26.253704 0.000000 33.147579
Head 24.318362 -0.648836 13.511192
1844
root 5.541401 36.987532 5.344592 -14.457030 -19.516329 -4.669767
RightUpLeg -4.861418 -28.979289 -15.807079
RightLeg 79.691690 -0.000000 -0.000000
RightFoot -1.299786 -26.733339 12.267015
RightToeBase -4.833180 -0.000000 0.000000
LeftUpLeg 26.083643 6.627127 -2.938532
LeftLeg -6.717340 -0.000000 0.000000
LeftFoot -11.552895 20.094970 -10.339938
LeftToeBase 6.283281 -0.000000 -0.000000
Spine 22.688972 -1.497637 -12.077308
RightShoulder -0.761419 -31.325730 -2.491193
RightArm 21.254557 -23.318014 65.143213
RightForeArm 6.693021 -0.000000 46.735777
RightHand -3.156630 0.000000 -8.127290
RightHandThumb1 -24.326973 -0.000000 -32.862282
LeftShoulder -18.890520 33.927143 0.868499
LeftArm 52.497772 -16.726788 -70.659965
LeftForeArm 24.077886 -0.000000 117.208913
LeftHand -25.718317 0.000000 9.181986
LeftHandThumb1 -26.253704 0.000000 33.147579
Head 24.286133 -0.574145 13.492788
1845
root 5.553455 36.983926 5.344127 -14.362080 -19.519386 -4.629036
RightUpLeg -4.682634 -28.888214 -15.907685
RightLeg 78.636371 -0.000000 -0.000000
RightFoot -1.099351 -26.950761 12.146464
RightToeBase -5.033909 -0.000000 0.000000
LeftUpLeg 25.970754 6.632820 -2.998973
LeftLeg -6.721468 -0.000000 0.000000
LeftFoot -11.547903 20.036506 -10.365469
LeftToeBase 6.402987 -0.000000 -0.000000
Spine 22.566846 -1.528609 -12.059370
RightShoulder -0.729243 -31.335337 -2.527211
RightArm 21.237597 -23.269297 65.196495
RightForeArm 6.674293 -0.000000 46.516173
RightHand -3.129873 -0.000000 -8.179517
RightHandThumb1 -24.326973 -0.000000 -32.862282
LeftShoulder -18.861913 33.957268 0.890127
LeftArm 52.438769 -16.646546 -70.710435
LeftForeArm 24.198553 -0.000000 117.245178
LeftHand -25.766464 -0.000000 9.115863
LeftHandThumb1 -26.253704 0.000000 33.147579
Head 24.246460 -0.503869 13.448671
1846
root 5.565738 36.981774 5.342955 -14.280771 -19.527940 -4.598113
RightUpLeg -4.489707 -28.832887 -16.013952
RightLeg 77.548182 -0.000000 -0.000000
RightFoot -0.954143 -27.216393 12.062516
RightToeBase -5.000424 -0.000000 0.000000
LeftUpLeg 25.867709 6.627042 -3.054170
LeftLeg -6.713222 -0.000000 0.000000
LeftFoot -11.556953 20.047374 -10.392172
LeftToeBase 6.258369 -0.000000 -0.000000
Spine 22.474916 -1.544400 -12.029180
RightShoulder -0.706749 -31.342970 -2.558044
RightArm 21.233528 -23.234927 65.230423
RightForeArm 6.719206 -0.000000 46.311916
RightHand -3.158086 -0.000000 -8.335266
RightHandThumb1 -24.326973 -0.000000 -32.862282
LeftShoulder -18.829599 33.982417 0.926137
LeftArm 52.389533 -16.548810 -70.749271
LeftForeArm 24.330735 0.000000 117.262811
LeftHand -25.857070 -0.000000 9.209167
LeftHandThumb1 -26.253704 0.000000 33.147579
Head 24.192487 -0.449499 13.441613
1847
root 5.577541 36.980783 5.341192 -14.209720 -19.541344 -4.584164
RightUpLeg -4.298823 -28.795524 -16.111033
RightLeg 76.449350 -0.000000 -0.000000
RightFoot -0.892287 -27.498570 12.114930
RightToeBase -5.211313 -0.000000 0.000000
LeftUpLeg 25.775479 6.648510 -3.081094
LeftLeg -6.693072 -0.000000 0.000000
LeftFoot -11.560772 20.003662 -10.424658
LeftToeBase 6.251219 -0.000000 -0.000000
Spine 22.413487 -1.567010 -11.981257
RightShoulder -0.680713 -31.340793 -2.594233
RightArm 21.226879 -23.197814 65.255588
RightForeArm 6.856957 0.000000 46.125729
RightHand -3.154422 -0.000000 -8.366366
RightHandThumb1 -24.326973 -0.000000 -32.862282
LeftShoulder -18.813034 33.985308 0.952244
LeftArm 52.342369 -16.445880 -70.776686
LeftForeArm 24.505118 -0.000000 117.253771
LeftHand -25.895646 -0.000000 9.423170
LeftHandThumb1 -26.253704 0.000000 33.147579
Head 24.116854 -0.369334 13.428489
1848
root 5.587296 36.979754 5.340813 -14.163226 -19.566116 -4.582033
RightUpLeg -4.083746 -28.787541 -16.215225
RightLeg 75.343884 -0.000000 -0.000000
RightFoot -0.924262 -27.739576 12.291846
RightToeBase -5.216576 -0.000000 0.000000
LeftUpLeg 25.720586 6.666190 -3.098494
LeftLeg -6.687780 -0.000000 0.000000
LeftFoot -11.571503 20.002874 -10.430176
LeftToeBase 6.284078 -0.000000 -0.000000
Spine 22.385550 -1.579775 -11.922579
RightShoulder -0.634877 -31.336515 -2.640765
RightArm 21.182570 -23.090873 65.317605
RightForeArm 6.904897 0.000000 45.984662
RightHand -3.152702 0.000000 -8.322244
RightHandThumb1 -24.326973 -0.000000 -32.862282
LeftShoulder -18.815842 33.984316 0.973992
LeftArm 52.313576 -16.352791 -70.809166
LeftForeArm 24.601568 -0.000000 117.237641
LeftHand -25.888293 -0.000000 9.395792
LeftHandThumb1 -26.253704 0.000000 33.147579
Head 24.041473 -0.333287 13.418433
